<mxfile host="app.diagrams.net" agent="Mozilla/5.0 (Windows NT 10.0; Win64; x64) AppleWebKit/537.36 (KHTML, like Gecko) Chrome/131.0.0.0 Safari/537.36" version="24.7.17">
  <diagram name="Page-1" id="sCcfLyy0vtP1j9GHQ2U_">
    <mxGraphModel dx="1985" dy="803" grid="1" gridSize="10" guides="1" tooltips="1" connect="1" arrows="1" fold="1" page="1" pageScale="1" pageWidth="850" pageHeight="1100" math="0" shadow="0">
      <root>
        <mxCell id="0" />
        <mxCell id="1" parent="0" />
        <mxCell id="HDAIHqW3xJN0AV3oF5u7-3" value="&lt;u&gt;&lt;font style=&quot;font-size: 18px;&quot;&gt;id&lt;/font&gt;&lt;/u&gt;" style="rounded=0;whiteSpace=wrap;html=1;" parent="1" vertex="1">
          <mxGeometry x="40" y="80" width="120" height="50" as="geometry" />
        </mxCell>
        <mxCell id="HDAIHqW3xJN0AV3oF5u7-4" value="&lt;font style=&quot;font-size: 18px;&quot;&gt;aircraftID&lt;/font&gt;" style="rounded=0;whiteSpace=wrap;html=1;" parent="1" vertex="1">
          <mxGeometry x="160" y="80" width="120" height="50" as="geometry" />
        </mxCell>
        <mxCell id="HDAIHqW3xJN0AV3oF5u7-5" value="&lt;div style=&quot;&quot;&gt;&lt;font style=&quot;font-size: 14px;&quot;&gt;Departure&lt;/font&gt;&lt;/div&gt;&lt;div style=&quot;&quot;&gt;&lt;font size=&quot;3&quot;&gt;AirportCode&lt;/font&gt;&lt;/div&gt;" style="rounded=0;whiteSpace=wrap;html=1;align=center;" parent="1" vertex="1">
          <mxGeometry x="280" y="80" width="120" height="50" as="geometry" />
        </mxCell>
        <mxCell id="HDAIHqW3xJN0AV3oF5u7-6" value="&lt;font style=&quot;font-size: 14px;&quot;&gt;Arrival&lt;/font&gt;&lt;div&gt;&lt;font size=&quot;3&quot;&gt;AirportCode&lt;/font&gt;&lt;/div&gt;" style="rounded=0;whiteSpace=wrap;html=1;" parent="1" vertex="1">
          <mxGeometry x="400" y="80" width="120" height="50" as="geometry" />
        </mxCell>
        <mxCell id="HDAIHqW3xJN0AV3oF5u7-7" value="&lt;font style=&quot;font-size: 14px;&quot;&gt;departure&lt;/font&gt;&lt;span style=&quot;font-size: medium; background-color: initial;&quot;&gt;Time&lt;/span&gt;" style="rounded=0;whiteSpace=wrap;html=1;" parent="1" vertex="1">
          <mxGeometry x="520" y="80" width="120" height="50" as="geometry" />
        </mxCell>
        <mxCell id="HDAIHqW3xJN0AV3oF5u7-8" value="&lt;font style=&quot;font-size: 14px;&quot;&gt;arrivalTime&lt;/font&gt;" style="rounded=0;whiteSpace=wrap;html=1;" parent="1" vertex="1">
          <mxGeometry x="640" y="80" width="120" height="50" as="geometry" />
        </mxCell>
        <mxCell id="HDAIHqW3xJN0AV3oF5u7-9" value="&lt;font style=&quot;font-size: 18px;&quot;&gt;basePrice&lt;/font&gt;" style="rounded=0;whiteSpace=wrap;html=1;" parent="1" vertex="1">
          <mxGeometry x="760" y="80" width="120" height="50" as="geometry" />
        </mxCell>
        <mxCell id="HDAIHqW3xJN0AV3oF5u7-10" value="&lt;font style=&quot;font-size: 18px;&quot;&gt;monday&lt;/font&gt;" style="rounded=0;whiteSpace=wrap;html=1;" parent="1" vertex="1">
          <mxGeometry x="880" y="80" width="120" height="50" as="geometry" />
        </mxCell>
        <mxCell id="HDAIHqW3xJN0AV3oF5u7-11" value="&lt;font style=&quot;font-size: 18px;&quot;&gt;tuesday&lt;/font&gt;" style="rounded=0;whiteSpace=wrap;html=1;" parent="1" vertex="1">
          <mxGeometry x="1000" y="80" width="120" height="50" as="geometry" />
        </mxCell>
        <mxCell id="HDAIHqW3xJN0AV3oF5u7-12" value="&lt;font style=&quot;font-size: 18px;&quot;&gt;wednesday&lt;/font&gt;" style="rounded=0;whiteSpace=wrap;html=1;" parent="1" vertex="1">
          <mxGeometry x="1120" y="80" width="120" height="50" as="geometry" />
        </mxCell>
        <mxCell id="HDAIHqW3xJN0AV3oF5u7-13" value="&lt;font style=&quot;font-size: 18px;&quot;&gt;thursday&lt;/font&gt;" style="rounded=0;whiteSpace=wrap;html=1;" parent="1" vertex="1">
          <mxGeometry x="1240" y="80" width="120" height="50" as="geometry" />
        </mxCell>
        <mxCell id="HDAIHqW3xJN0AV3oF5u7-14" value="&lt;font style=&quot;font-size: 18px;&quot;&gt;friday&lt;/font&gt;" style="rounded=0;whiteSpace=wrap;html=1;" parent="1" vertex="1">
          <mxGeometry x="1360" y="80" width="120" height="50" as="geometry" />
        </mxCell>
        <mxCell id="HDAIHqW3xJN0AV3oF5u7-15" value="&lt;font style=&quot;font-size: 18px;&quot;&gt;saturday&lt;/font&gt;" style="rounded=0;whiteSpace=wrap;html=1;" parent="1" vertex="1">
          <mxGeometry x="1480" y="80" width="120" height="50" as="geometry" />
        </mxCell>
        <mxCell id="HDAIHqW3xJN0AV3oF5u7-16" value="&lt;font style=&quot;font-size: 18px;&quot;&gt;sunday&lt;/font&gt;" style="rounded=0;whiteSpace=wrap;html=1;" parent="1" vertex="1">
          <mxGeometry x="1600" y="80" width="120" height="50" as="geometry" />
        </mxCell>
        <mxCell id="HDAIHqW3xJN0AV3oF5u7-17" value="&lt;b&gt;&lt;font style=&quot;font-size: 16px;&quot;&gt;Routes&lt;/font&gt;&lt;/b&gt;" style="text;html=1;align=center;verticalAlign=middle;resizable=0;points=[];autosize=1;strokeColor=none;fillColor=none;" parent="1" vertex="1">
          <mxGeometry x="41" y="48" width="80" height="30" as="geometry" />
        </mxCell>
        <mxCell id="HDAIHqW3xJN0AV3oF5u7-18" value="&lt;u&gt;&lt;font style=&quot;font-size: 18px;&quot;&gt;aircraftID&lt;/font&gt;&lt;/u&gt;" style="rounded=0;whiteSpace=wrap;html=1;" parent="1" vertex="1">
          <mxGeometry x="40" y="230" width="120" height="50" as="geometry" />
        </mxCell>
        <mxCell id="HDAIHqW3xJN0AV3oF5u7-19" value="&lt;font style=&quot;font-size: 18px;&quot;&gt;model&lt;/font&gt;" style="rounded=0;whiteSpace=wrap;html=1;" parent="1" vertex="1">
          <mxGeometry x="160" y="230" width="120" height="50" as="geometry" />
        </mxCell>
        <mxCell id="HDAIHqW3xJN0AV3oF5u7-20" value="&lt;font style=&quot;font-size: 18px;&quot;&gt;business&lt;/font&gt;" style="rounded=0;whiteSpace=wrap;html=1;" parent="1" vertex="1">
          <mxGeometry x="280" y="230" width="120" height="50" as="geometry" />
        </mxCell>
        <mxCell id="HDAIHqW3xJN0AV3oF5u7-21" value="&lt;font style=&quot;font-size: 18px;&quot;&gt;economy&lt;/font&gt;" style="rounded=0;whiteSpace=wrap;html=1;" parent="1" vertex="1">
          <mxGeometry x="400" y="230" width="120" height="50" as="geometry" />
        </mxCell>
        <mxCell id="HDAIHqW3xJN0AV3oF5u7-22" value="&lt;b&gt;&lt;font style=&quot;font-size: 16px;&quot;&gt;Flights&lt;/font&gt;&lt;/b&gt;" style="text;html=1;align=center;verticalAlign=middle;resizable=0;points=[];autosize=1;strokeColor=none;fillColor=none;" parent="1" vertex="1">
          <mxGeometry x="40" y="188" width="80" height="30" as="geometry" />
        </mxCell>
        <mxCell id="HDAIHqW3xJN0AV3oF5u7-23" value="" style="endArrow=classic;html=1;rounded=0;exitX=0.5;exitY=1;exitDx=0;exitDy=0;entryX=0.5;entryY=1;entryDx=0;entryDy=0;edgeStyle=orthogonalEdgeStyle;elbow=vertical;" parent="1" source="HDAIHqW3xJN0AV3oF5u7-4" target="HDAIHqW3xJN0AV3oF5u7-18" edge="1">
          <mxGeometry width="50" height="50" relative="1" as="geometry">
            <mxPoint x="450" y="310" as="sourcePoint" />
            <mxPoint x="500" y="260" as="targetPoint" />
            <Array as="points">
              <mxPoint x="220" y="210" />
              <mxPoint x="940" y="210" />
              <mxPoint x="940" y="310" />
              <mxPoint x="100" y="310" />
            </Array>
          </mxGeometry>
        </mxCell>
        <mxCell id="HDAIHqW3xJN0AV3oF5u7-24" value="&lt;u&gt;&lt;font style=&quot;font-size: 18px;&quot;&gt;cityID&lt;/font&gt;&lt;/u&gt;" style="rounded=0;whiteSpace=wrap;html=1;" parent="1" vertex="1">
          <mxGeometry x="41" y="400" width="120" height="50" as="geometry" />
        </mxCell>
        <mxCell id="HDAIHqW3xJN0AV3oF5u7-25" value="&lt;font style=&quot;font-size: 18px;&quot;&gt;cityName&lt;/font&gt;" style="rounded=0;whiteSpace=wrap;html=1;" parent="1" vertex="1">
          <mxGeometry x="161" y="400" width="120" height="50" as="geometry" />
        </mxCell>
        <mxCell id="HDAIHqW3xJN0AV3oF5u7-26" value="&lt;font style=&quot;font-size: 18px;&quot;&gt;airportName&lt;/font&gt;" style="rounded=0;whiteSpace=wrap;html=1;" parent="1" vertex="1">
          <mxGeometry x="281" y="400" width="120" height="50" as="geometry" />
        </mxCell>
        <mxCell id="HDAIHqW3xJN0AV3oF5u7-27" value="" style="endArrow=classic;html=1;rounded=0;entryX=0.5;entryY=1;entryDx=0;entryDy=0;exitX=0.558;exitY=1.04;exitDx=0;exitDy=0;exitPerimeter=0;edgeStyle=orthogonalEdgeStyle;" parent="1" source="HDAIHqW3xJN0AV3oF5u7-5" target="HDAIHqW3xJN0AV3oF5u7-24" edge="1">
          <mxGeometry width="50" height="50" relative="1" as="geometry">
            <mxPoint x="70" y="520" as="sourcePoint" />
            <mxPoint x="120" y="470" as="targetPoint" />
            <Array as="points">
              <mxPoint x="347" y="160" />
              <mxPoint x="1020" y="160" />
              <mxPoint x="1020" y="490" />
              <mxPoint x="101" y="490" />
            </Array>
          </mxGeometry>
        </mxCell>
        <mxCell id="HDAIHqW3xJN0AV3oF5u7-28" value="" style="endArrow=classic;html=1;rounded=0;entryX=0.75;entryY=1;entryDx=0;entryDy=0;edgeStyle=orthogonalEdgeStyle;exitX=0.592;exitY=1.02;exitDx=0;exitDy=0;exitPerimeter=0;" parent="1" source="HDAIHqW3xJN0AV3oF5u7-6" target="HDAIHqW3xJN0AV3oF5u7-24" edge="1">
          <mxGeometry width="50" height="50" relative="1" as="geometry">
            <mxPoint x="450" y="360" as="sourcePoint" />
            <mxPoint x="500" y="310" as="targetPoint" />
            <Array as="points">
              <mxPoint x="471" y="180" />
              <mxPoint x="1220" y="180" />
              <mxPoint x="1220" y="530" />
              <mxPoint x="131" y="530" />
            </Array>
          </mxGeometry>
        </mxCell>
        <mxCell id="HDAIHqW3xJN0AV3oF5u7-29" value="&lt;b&gt;&lt;font style=&quot;font-size: 16px;&quot;&gt;Cities&lt;/font&gt;&lt;/b&gt;" style="text;html=1;align=center;verticalAlign=middle;resizable=0;points=[];autosize=1;strokeColor=none;fillColor=none;" parent="1" vertex="1">
          <mxGeometry x="40" y="358" width="70" height="30" as="geometry" />
        </mxCell>
        <mxCell id="HDAIHqW3xJN0AV3oF5u7-30" value="&lt;u&gt;&lt;font style=&quot;font-size: 18px;&quot;&gt;username&lt;/font&gt;&lt;/u&gt;" style="rounded=0;whiteSpace=wrap;html=1;" parent="1" vertex="1">
          <mxGeometry x="41" y="600" width="120" height="50" as="geometry" />
        </mxCell>
        <mxCell id="HDAIHqW3xJN0AV3oF5u7-31" value="&lt;font style=&quot;font-size: 18px;&quot;&gt;password&lt;/font&gt;" style="rounded=0;whiteSpace=wrap;html=1;" parent="1" vertex="1">
          <mxGeometry x="161" y="600" width="120" height="50" as="geometry" />
        </mxCell>
        <mxCell id="HDAIHqW3xJN0AV3oF5u7-32" value="&lt;font style=&quot;font-size: 18px;&quot;&gt;firstName&lt;/font&gt;" style="rounded=0;whiteSpace=wrap;html=1;" parent="1" vertex="1">
          <mxGeometry x="281" y="600" width="120" height="50" as="geometry" />
        </mxCell>
        <mxCell id="HDAIHqW3xJN0AV3oF5u7-33" value="&lt;font style=&quot;font-size: 18px;&quot;&gt;lastName&lt;/font&gt;" style="rounded=0;whiteSpace=wrap;html=1;" parent="1" vertex="1">
          <mxGeometry x="400" y="600" width="120" height="50" as="geometry" />
        </mxCell>
        <mxCell id="HDAIHqW3xJN0AV3oF5u7-34" value="&lt;font style=&quot;font-size: 18px;&quot;&gt;mobileNo&lt;/font&gt;" style="rounded=0;whiteSpace=wrap;html=1;" parent="1" vertex="1">
          <mxGeometry x="520" y="600" width="120" height="50" as="geometry" />
        </mxCell>
        <mxCell id="HDAIHqW3xJN0AV3oF5u7-35" value="&lt;font style=&quot;font-size: 18px;&quot;&gt;emailID&lt;/font&gt;" style="rounded=0;whiteSpace=wrap;html=1;" parent="1" vertex="1">
          <mxGeometry x="640" y="600" width="120" height="50" as="geometry" />
        </mxCell>
        <mxCell id="HDAIHqW3xJN0AV3oF5u7-36" value="&lt;font style=&quot;font-size: 18px;&quot;&gt;age&lt;/font&gt;" style="rounded=0;whiteSpace=wrap;html=1;" parent="1" vertex="1">
          <mxGeometry x="760" y="600" width="120" height="50" as="geometry" />
        </mxCell>
        <mxCell id="HDAIHqW3xJN0AV3oF5u7-37" value="&lt;font style=&quot;font-size: 18px;&quot;&gt;gender&lt;/font&gt;" style="rounded=0;whiteSpace=wrap;html=1;" parent="1" vertex="1">
          <mxGeometry x="880" y="600" width="120" height="50" as="geometry" />
        </mxCell>
        <mxCell id="HDAIHqW3xJN0AV3oF5u7-38" value="&lt;b&gt;&lt;font style=&quot;font-size: 16px;&quot;&gt;Users&lt;/font&gt;&lt;/b&gt;" style="text;html=1;align=center;verticalAlign=middle;resizable=0;points=[];autosize=1;strokeColor=none;fillColor=none;" parent="1" vertex="1">
          <mxGeometry x="40" y="558" width="70" height="30" as="geometry" />
        </mxCell>
        <mxCell id="HDAIHqW3xJN0AV3oF5u7-39" value="&lt;u&gt;&lt;font style=&quot;font-size: 18px;&quot;&gt;bookingID&lt;/font&gt;&lt;/u&gt;" style="rounded=0;whiteSpace=wrap;html=1;" parent="1" vertex="1">
          <mxGeometry x="40" y="760" width="120" height="50" as="geometry" />
        </mxCell>
        <mxCell id="HDAIHqW3xJN0AV3oF5u7-40" value="&lt;font style=&quot;font-size: 18px;&quot;&gt;username&lt;/font&gt;" style="rounded=0;whiteSpace=wrap;html=1;" parent="1" vertex="1">
          <mxGeometry x="160" y="760" width="120" height="50" as="geometry" />
        </mxCell>
        <mxCell id="HDAIHqW3xJN0AV3oF5u7-41" value="&lt;font style=&quot;font-size: 18px;&quot;&gt;flightID&lt;/font&gt;" style="rounded=0;whiteSpace=wrap;html=1;" parent="1" vertex="1">
          <mxGeometry x="280" y="760" width="120" height="50" as="geometry" />
        </mxCell>
        <mxCell id="HDAIHqW3xJN0AV3oF5u7-42" value="&lt;font style=&quot;font-size: 18px;&quot;&gt;date&lt;/font&gt;" style="rounded=0;whiteSpace=wrap;html=1;" parent="1" vertex="1">
          <mxGeometry x="400" y="760" width="120" height="50" as="geometry" />
        </mxCell>
        <mxCell id="HDAIHqW3xJN0AV3oF5u7-43" value="&lt;font style=&quot;font-size: 18px;&quot;&gt;adults&lt;/font&gt;" style="rounded=0;whiteSpace=wrap;html=1;" parent="1" vertex="1">
          <mxGeometry x="520" y="760" width="120" height="50" as="geometry" />
        </mxCell>
        <mxCell id="HDAIHqW3xJN0AV3oF5u7-44" value="&lt;font style=&quot;font-size: 18px;&quot;&gt;amountPaid&lt;/font&gt;" style="rounded=0;whiteSpace=wrap;html=1;" parent="1" vertex="1">
          <mxGeometry x="761" y="760" width="120" height="50" as="geometry" />
        </mxCell>
        <mxCell id="HDAIHqW3xJN0AV3oF5u7-45" value="&lt;font style=&quot;font-size: 18px;&quot;&gt;food&lt;/font&gt;" style="rounded=0;whiteSpace=wrap;html=1;" parent="1" vertex="1">
          <mxGeometry x="881" y="760" width="120" height="50" as="geometry" />
        </mxCell>
        <mxCell id="HDAIHqW3xJN0AV3oF5u7-46" value="&lt;font style=&quot;font-size: 18px;&quot;&gt;extraLuggage&lt;/font&gt;" style="rounded=0;whiteSpace=wrap;html=1;" parent="1" vertex="1">
          <mxGeometry x="1001" y="760" width="120" height="50" as="geometry" />
        </mxCell>
        <mxCell id="HDAIHqW3xJN0AV3oF5u7-47" value="&lt;b&gt;&lt;font style=&quot;font-size: 16px;&quot;&gt;Bookings&lt;/font&gt;&lt;/b&gt;" style="text;html=1;align=center;verticalAlign=middle;resizable=0;points=[];autosize=1;strokeColor=none;fillColor=none;" parent="1" vertex="1">
          <mxGeometry x="41" y="720" width="100" height="30" as="geometry" />
        </mxCell>
        <mxCell id="HDAIHqW3xJN0AV3oF5u7-48" value="" style="endArrow=classic;html=1;rounded=0;exitX=0.5;exitY=0;exitDx=0;exitDy=0;exitPerimeter=0;entryX=0.5;entryY=1;entryDx=0;entryDy=0;edgeStyle=orthogonalEdgeStyle;" parent="1" source="HDAIHqW3xJN0AV3oF5u7-40" target="HDAIHqW3xJN0AV3oF5u7-30" edge="1">
          <mxGeometry width="50" height="50" relative="1" as="geometry">
            <mxPoint x="220" y="750" as="sourcePoint" />
            <mxPoint x="270" y="700" as="targetPoint" />
            <Array as="points">
              <mxPoint x="220" y="710" />
              <mxPoint x="101" y="710" />
            </Array>
          </mxGeometry>
        </mxCell>
        <mxCell id="HDAIHqW3xJN0AV3oF5u7-49" value="" style="endArrow=classic;html=1;rounded=0;exitX=0.5;exitY=0;exitDx=0;exitDy=0;entryX=0.555;entryY=1.01;entryDx=0;entryDy=0;entryPerimeter=0;edgeStyle=orthogonalEdgeStyle;" parent="1" source="HDAIHqW3xJN0AV3oF5u7-41" target="HDAIHqW3xJN0AV3oF5u7-3" edge="1">
          <mxGeometry width="50" height="50" relative="1" as="geometry">
            <mxPoint x="330" y="740" as="sourcePoint" />
            <mxPoint x="380" y="690" as="targetPoint" />
            <Array as="points">
              <mxPoint x="340" y="690" />
              <mxPoint x="20" y="690" />
              <mxPoint x="20" y="150" />
              <mxPoint x="107" y="150" />
            </Array>
          </mxGeometry>
        </mxCell>
        <mxCell id="HDAIHqW3xJN0AV3oF5u7-50" value="&lt;u&gt;&lt;font style=&quot;font-size: 18px;&quot;&gt;bookingID&lt;/font&gt;&lt;/u&gt;" style="rounded=0;whiteSpace=wrap;html=1;" parent="1" vertex="1">
          <mxGeometry x="41" y="910" width="120" height="50" as="geometry" />
        </mxCell>
        <mxCell id="HDAIHqW3xJN0AV3oF5u7-51" value="&lt;u&gt;&lt;font style=&quot;font-size: 18px;&quot;&gt;passengerNo&lt;/font&gt;&lt;/u&gt;" style="rounded=0;whiteSpace=wrap;html=1;" parent="1" vertex="1">
          <mxGeometry x="161" y="910" width="120" height="50" as="geometry" />
        </mxCell>
        <mxCell id="HDAIHqW3xJN0AV3oF5u7-52" value="&lt;font style=&quot;font-size: 18px;&quot;&gt;firstName&lt;/font&gt;" style="rounded=0;whiteSpace=wrap;html=1;" parent="1" vertex="1">
          <mxGeometry x="281" y="910" width="120" height="50" as="geometry" />
        </mxCell>
        <mxCell id="HDAIHqW3xJN0AV3oF5u7-53" value="&lt;font style=&quot;font-size: 18px;&quot;&gt;lastName&lt;/font&gt;" style="rounded=0;whiteSpace=wrap;html=1;" parent="1" vertex="1">
          <mxGeometry x="401" y="910" width="120" height="50" as="geometry" />
        </mxCell>
        <mxCell id="HDAIHqW3xJN0AV3oF5u7-54" value="&lt;font style=&quot;font-size: 18px;&quot;&gt;gender&lt;/font&gt;" style="rounded=0;whiteSpace=wrap;html=1;" parent="1" vertex="1">
          <mxGeometry x="521" y="910" width="120" height="50" as="geometry" />
        </mxCell>
        <mxCell id="HDAIHqW3xJN0AV3oF5u7-56" value="&lt;font style=&quot;font-size: 18px;&quot;&gt;age&lt;/font&gt;" style="rounded=0;whiteSpace=wrap;html=1;" parent="1" vertex="1">
          <mxGeometry x="641" y="910" width="120" height="50" as="geometry" />
        </mxCell>
        <mxCell id="HDAIHqW3xJN0AV3oF5u7-57" value="&lt;b style=&quot;font-size: 16px;&quot;&gt;Booking Details&lt;br&gt;&lt;/b&gt;" style="text;html=1;align=center;verticalAlign=middle;resizable=0;points=[];autosize=1;strokeColor=none;fillColor=none;" parent="1" vertex="1">
          <mxGeometry x="41" y="868" width="140" height="30" as="geometry" />
        </mxCell>
        <mxCell id="HDAIHqW3xJN0AV3oF5u7-58" value="" style="endArrow=classic;html=1;rounded=0;exitX=0.395;exitY=1.019;exitDx=0;exitDy=0;exitPerimeter=0;entryX=0.425;entryY=0.958;entryDx=0;entryDy=0;entryPerimeter=0;edgeStyle=orthogonalEdgeStyle;" parent="1" source="HDAIHqW3xJN0AV3oF5u7-50" target="HDAIHqW3xJN0AV3oF5u7-39" edge="1">
          <mxGeometry width="50" height="50" relative="1" as="geometry">
            <mxPoint x="60" y="1030" as="sourcePoint" />
            <mxPoint x="110" y="980" as="targetPoint" />
            <Array as="points">
              <mxPoint x="88" y="990" />
              <mxPoint x="31" y="990" />
              <mxPoint x="31" y="860" />
              <mxPoint x="91" y="860" />
            </Array>
          </mxGeometry>
        </mxCell>
        <mxCell id="wB6hMtW-AQrQEqTnkis1-1" value="&lt;font style=&quot;font-size: 18px;&quot;&gt;children&lt;/font&gt;" style="rounded=0;whiteSpace=wrap;html=1;" parent="1" vertex="1">
          <mxGeometry x="641" y="760" width="120" height="50" as="geometry" />
        </mxCell>
        <mxCell id="mJUpb2nNKxngBacVLkeY-1" value="&lt;font style=&quot;font-size: 18px;&quot;&gt;UpdatedBy&lt;/font&gt;" style="rounded=0;whiteSpace=wrap;html=1;" vertex="1" parent="1">
          <mxGeometry x="401" y="400" width="120" height="50" as="geometry" />
        </mxCell>
        <mxCell id="mJUpb2nNKxngBacVLkeY-2" value="&lt;font style=&quot;font-size: 18px;&quot;&gt;uTime&lt;/font&gt;" style="rounded=0;whiteSpace=wrap;html=1;" vertex="1" parent="1">
          <mxGeometry x="1000" y="600" width="120" height="50" as="geometry" />
        </mxCell>
        <mxCell id="mJUpb2nNKxngBacVLkeY-3" value="&lt;font style=&quot;font-size: 18px;&quot;&gt;uTime&lt;/font&gt;" style="rounded=0;whiteSpace=wrap;html=1;" vertex="1" parent="1">
          <mxGeometry x="521" y="400" width="120" height="50" as="geometry" />
        </mxCell>
        <mxCell id="mJUpb2nNKxngBacVLkeY-4" value="&lt;font style=&quot;font-size: 18px;&quot;&gt;UpdatedBy&lt;/font&gt;" style="rounded=0;whiteSpace=wrap;html=1;" vertex="1" parent="1">
          <mxGeometry x="1720" y="80" width="120" height="50" as="geometry" />
        </mxCell>
        <mxCell id="mJUpb2nNKxngBacVLkeY-5" value="&lt;font style=&quot;font-size: 18px;&quot;&gt;uTime&lt;/font&gt;" style="rounded=0;whiteSpace=wrap;html=1;" vertex="1" parent="1">
          <mxGeometry x="1840" y="80" width="120" height="50" as="geometry" />
        </mxCell>
        <mxCell id="mJUpb2nNKxngBacVLkeY-7" value="&lt;font style=&quot;font-size: 18px;&quot;&gt;uTime&lt;/font&gt;" style="rounded=0;whiteSpace=wrap;html=1;" vertex="1" parent="1">
          <mxGeometry x="1121" y="760" width="120" height="50" as="geometry" />
        </mxCell>
        <mxCell id="mJUpb2nNKxngBacVLkeY-8" value="&lt;font style=&quot;font-size: 18px;&quot;&gt;UpdatedBy&lt;/font&gt;" style="rounded=0;whiteSpace=wrap;html=1;" vertex="1" parent="1">
          <mxGeometry x="521" y="230" width="120" height="50" as="geometry" />
        </mxCell>
        <mxCell id="mJUpb2nNKxngBacVLkeY-9" value="&lt;font style=&quot;font-size: 18px;&quot;&gt;uTime&lt;/font&gt;" style="rounded=0;whiteSpace=wrap;html=1;" vertex="1" parent="1">
          <mxGeometry x="641" y="230" width="120" height="50" as="geometry" />
        </mxCell>
      </root>
    </mxGraphModel>
  </diagram>
</mxfile>
